<svg xmlns="http://www.w3.org/2000/svg" viewBox="0 0 500 77.24"><defs><style>.cls-1{fill:#fff;}.cls-2{fill:#35385c;}</style></defs><title>Ресурс 1</title><g id="Слой_2" data-name="Слой 2"><g id="Layer_1" data-name="Layer 1"><path class="cls-1" d="M340.29,57.55a5.81,5.81,0,0,1,0-8.07,6.15,6.15,0,0,1,8.14,0,5.87,5.87,0,0,1,0,8.07,5.91,5.91,0,0,1-8.09,0Z"/><path class="cls-1" d="M87.71,25.33C86.22,12.81,72.67,0,57.08,0c-15.33,0-28.21,11.94-30,24.19A27,27,0,0,0,0,50.93C0,65.18,12.21,76.76,25.22,77l0,.22H82.12c13.19,0,25.89-11.68,25.89-26.1C108,38.05,99.2,27.22,87.71,25.33Z"/><circle class="cls-1" cx="10.33" cy="12.24" r="6.65"/><path class="cls-2" d="M135,46.05,131.28,50V58.7h-9.77V23.84h9.77V38.33l13.49-14.49h10.86L141.39,39.28l15,19.42H144.92Z"/><path class="cls-2" d="M184.91,47.59H165.29a5.44,5.44,0,0,0,2.32,3.21,7.68,7.68,0,0,0,4.3,1.12,9.49,9.49,0,0,0,3.37-.54,10.09,10.09,0,0,0,2.86-1.8l5,5.18q-3.93,4.4-11.5,4.39a18.3,18.3,0,0,1-8.32-1.8,13.21,13.21,0,0,1-7.52-12.2A13.35,13.35,0,0,1,163,33.05a17,17,0,0,1,14.94-.12,12.61,12.61,0,0,1,5.2,4.83,14.15,14.15,0,0,1,1.92,7.49Q185.06,45.36,184.91,47.59ZM167,39.23a5.65,5.65,0,0,0-1.87,3.38H176.2a5.65,5.65,0,0,0-1.87-3.38,6,6,0,0,0-7.32,0Z"/><path class="cls-2" d="M217.38,31.71,205.73,59.79c-1.36,3.32-3,5.66-5,7a12.33,12.33,0,0,1-7.17,2,14.72,14.72,0,0,1-4.31-.67,10.49,10.49,0,0,1-3.51-1.77l3.29-6.63A5.68,5.68,0,0,0,191,60.91a6.22,6.22,0,0,0,2.27.43,3.68,3.68,0,0,0,3.68-2.29L185.36,31.71h9.71l6.63,16.48,6.67-16.48Z"/><path class="cls-2" d="M243.5,33a12.4,12.4,0,0,1,4.78,4.88,14.74,14.74,0,0,1,1.77,7.34,14.81,14.81,0,0,1-1.77,7.35,12.47,12.47,0,0,1-4.78,4.88,13.34,13.34,0,0,1-6.7,1.72,10.08,10.08,0,0,1-7.52-2.84v12h-9.46V31.71h9v2.68q2.64-3.14,8-3.13A13.24,13.24,0,0,1,243.5,33Zm-4.6,16.93a6.68,6.68,0,0,0,1.59-4.71,6.64,6.64,0,0,0-1.59-4.7,5.71,5.71,0,0,0-8.17,0,6.64,6.64,0,0,0-1.6,4.7,6.69,6.69,0,0,0,1.6,4.71,5.71,5.71,0,0,0,8.17,0Z"/><path class="cls-2" d="M275.6,34.32q3.54,3.06,3.54,9.39v15h-8.82V55.21c-1.36,2.62-4,3.94-8,3.94a12.5,12.5,0,0,1-5.43-1.1,8.11,8.11,0,0,1-3.46-3,7.88,7.88,0,0,1-1.17-4.26,6.9,6.9,0,0,1,2.94-5.95q2.94-2.12,9.06-2.12h5.38q-.24-4.27-5.72-4.28a13.32,13.32,0,0,0-3.94.62,10.44,10.44,0,0,0-3.38,1.72l-3.19-6.43a17.8,17.8,0,0,1,5.45-2.31,25.81,25.81,0,0,1,6.45-.82Q272.06,31.26,275.6,34.32Zm-7.72,18A4.4,4.4,0,0,0,269.67,50V47.69h-4.08c-2.76,0-4.13.91-4.13,2.74a2.41,2.41,0,0,0,.94,2,4.07,4.07,0,0,0,2.59.75A5.25,5.25,0,0,0,267.88,52.37Z"/><path class="cls-2" d="M288.25,58.37a17.55,17.55,0,0,1-5.28-2l2.84-6.48a15.94,15.94,0,0,0,4.38,1.82,19.49,19.49,0,0,0,5,.67,7.94,7.94,0,0,0,3.26-.47,1.49,1.49,0,0,0,1-1.37c0-.6-.4-1-1.18-1.27a23.69,23.69,0,0,0-3.71-.72,37.51,37.51,0,0,1-5.5-1,8.52,8.52,0,0,1-3.91-2.39,6.86,6.86,0,0,1-1.64-4.88,7.35,7.35,0,0,1,1.54-4.6,10.19,10.19,0,0,1,4.51-3.19,19.3,19.3,0,0,1,7.1-1.17,29.24,29.24,0,0,1,5.82.59,16.7,16.7,0,0,1,4.83,1.7L304.49,40a15.77,15.77,0,0,0-7.77-2,7.9,7.9,0,0,0-3.29.52,1.57,1.57,0,0,0-1.05,1.37c0,.63.38,1.07,1.15,1.32a25.22,25.22,0,0,0,3.78.77,43.06,43.06,0,0,1,5.53,1.15,8.42,8.42,0,0,1,3.81,2.37,6.7,6.7,0,0,1,1.62,4.8,7.38,7.38,0,0,1-1.54,4.56A10.07,10.07,0,0,1,302.17,58a20.54,20.54,0,0,1-7.25,1.15A28.75,28.75,0,0,1,288.25,58.37Z"/><path class="cls-2" d="M315.49,58.37a17.55,17.55,0,0,1-5.28-2l2.84-6.48a15.94,15.94,0,0,0,4.38,1.82,19.55,19.55,0,0,0,5,.67,7.94,7.94,0,0,0,3.26-.47,1.49,1.49,0,0,0,1-1.37c0-.6-.4-1-1.18-1.27a23.44,23.44,0,0,0-3.71-.72,37.51,37.51,0,0,1-5.5-1,8.52,8.52,0,0,1-3.91-2.39,6.86,6.86,0,0,1-1.64-4.88,7.35,7.35,0,0,1,1.54-4.6,10.19,10.19,0,0,1,4.51-3.19,19.3,19.3,0,0,1,7.1-1.17,29.17,29.17,0,0,1,5.82.59,16.7,16.7,0,0,1,4.83,1.7L331.73,40A15.77,15.77,0,0,0,324,38a7.9,7.9,0,0,0-3.29.52,1.57,1.57,0,0,0-1.05,1.37c0,.63.38,1.07,1.15,1.32a25.22,25.22,0,0,0,3.78.77,43.06,43.06,0,0,1,5.53,1.15,8.42,8.42,0,0,1,3.81,2.37,6.7,6.7,0,0,1,1.62,4.8A7.38,7.38,0,0,1,334,54.84,10.07,10.07,0,0,1,329.41,58a20.54,20.54,0,0,1-7.25,1.15A28.75,28.75,0,0,1,315.49,58.37Z"/><path class="cls-1" d="M359.34,57.08a17.3,17.3,0,0,1-6.85-6.45A17.8,17.8,0,0,1,350,41.27a17.81,17.81,0,0,1,2.49-9.37,17.35,17.35,0,0,1,6.85-6.44,20.57,20.57,0,0,1,9.84-2.32,21.07,21.07,0,0,1,8.61,1.69,16.68,16.68,0,0,1,6.38,4.88l-6.28,5.68a10.33,10.33,0,0,0-8.22-4.08,10.13,10.13,0,0,0-5.05,1.24,8.68,8.68,0,0,0-3.44,3.51,11.71,11.71,0,0,0,0,10.41A8.68,8.68,0,0,0,364.62,50a10.14,10.14,0,0,0,5.05,1.25,10.32,10.32,0,0,0,8.22-4.09l6.28,5.68a16.58,16.58,0,0,1-6.38,4.88,21.07,21.07,0,0,1-8.61,1.69A20.68,20.68,0,0,1,359.34,57.08Z"/><path class="cls-1" d="M388.1,21.75h9.46v37H388.1Z"/><path class="cls-1" d="M409.41,57.35a13.6,13.6,0,0,1,0-24.32,18.31,18.31,0,0,1,15.71,0A13.23,13.23,0,0,1,430.53,38a13.47,13.47,0,0,1,1.94,7.19,13.62,13.62,0,0,1-1.94,7.22,13.35,13.35,0,0,1-5.43,5,18,18,0,0,1-15.69,0Zm11.91-7.44a6.74,6.74,0,0,0,1.59-4.76,6.57,6.57,0,0,0-1.59-4.68,5.78,5.78,0,0,0-8.17,0,6.57,6.57,0,0,0-1.59,4.68,6.74,6.74,0,0,0,1.59,4.76,5.71,5.71,0,0,0,8.17,0Z"/><path class="cls-1" d="M465.24,31.71v27h-9V55.81a9.71,9.71,0,0,1-3.59,2.49,11.76,11.76,0,0,1-4.43.85,11.3,11.3,0,0,1-8.34-3.09q-3.12-3.09-3.12-9.26V31.71h9.47V45.25a7,7,0,0,0,1.14,4.43,4.09,4.09,0,0,0,3.34,1.4,4.71,4.71,0,0,0,3.66-1.57,7,7,0,0,0,1.42-4.81v-13Z"/><path class="cls-1" d="M500,21.75v37h-9V56q-2.64,3.14-7.92,3.14a13.44,13.44,0,0,1-6.72-1.72,12.42,12.42,0,0,1-4.81-4.91,14.91,14.91,0,0,1-1.77-7.37,14.77,14.77,0,0,1,1.77-7.34A12.29,12.29,0,0,1,476.35,33a13.52,13.52,0,0,1,6.72-1.69q4.83,0,7.47,2.79V21.75ZM489.09,49.91a6.7,6.7,0,0,0,1.6-4.76,6.61,6.61,0,0,0-1.57-4.68,5.28,5.28,0,0,0-4.06-1.69A5.34,5.34,0,0,0,481,40.47a6.53,6.53,0,0,0-1.6,4.68,6.7,6.7,0,0,0,1.6,4.76,5.33,5.33,0,0,0,4.08,1.72A5.27,5.27,0,0,0,489.09,49.91Z"/></g></g></svg>